<svg width="1357" height="2716" viewBox="0 0 1357 2716" fill="none" xmlns="http://www.w3.org/2000/svg">
<path d="M380.5 487.137C397.6 477.066 412.213 472.209 436.5 468.521C444.75 467.268 454.2 466.331 457.5 466.439C463.226 466.627 464.008 466.988 474.621 474.334C491.444 485.98 495.996 492.15 494.596 501.414C492.129 517.745 470.299 563.717 442.567 610.985C434.14 625.347 432.55 627.325 427 630.356C421.116 633.57 398.811 640.835 377.5 646.48C368.15 648.957 357.125 652.136 353 653.544C342.67 657.071 318.937 669.217 310.645 675.221C306.874 677.95 303.608 680.003 303.387 679.782C302.671 679.065 304.951 611.843 306.006 602.561C310.743 560.898 319.646 541.969 348.188 512.872C360.206 500.621 367.588 494.742 380.5 487.137Z" fill="#C3BCB4"/>
<path d="M332.633 669.167C340.946 665.562 373.118 654.633 384.5 651.548C391.136 649.749 396.3 649.742 400.568 651.525C407.419 654.388 409.142 664.6 406.552 687.003C402.974 717.961 394.94 756.692 385.487 788.561C377.521 815.419 364.372 854.196 357.512 871.061C348.035 894.361 341.429 906.664 326.144 929.482C318.798 940.447 309.611 955.076 305.728 961.99C297.699 976.287 295.243 980.061 293.97 980.061C292.195 980.061 291.012 972.108 290.021 953.511C287.364 903.667 284.009 884.584 275.459 870.684C273.556 867.591 270.425 862.501 268.501 859.371C259.384 844.547 255.63 822.828 257.179 793.868C258.418 770.689 262.715 754.93 274.503 730.336C282.906 712.804 290.16 701.9 300.686 690.981C310.301 681.007 318.949 675.102 332.633 669.167Z" fill="#C3BCB4"/>
<path d="M415.99 683.657C417.135 677.11 418.355 671.296 418.701 670.736C419.685 669.144 420.696 672.884 422.421 684.495C426.65 712.961 426.921 747.499 423.083 769.103C418.838 793.005 408.466 822.865 396.437 845.818C385.663 866.374 371.862 887.061 368.922 887.061C365.039 887.061 370.993 861.478 392.546 785.561C397.699 767.411 402.795 748.736 403.871 744.061C406.673 731.882 413.548 697.614 415.99 683.657Z" fill="#C3BCB4"/>
<path d="M223.908 944.545C233.012 923.028 249.345 895.913 259.638 885.227C264.748 879.922 264.791 879.902 267.703 881.408C273.179 884.239 279.022 894.974 281.545 906.834C287.597 935.293 281.776 980.952 264.496 1040.56C248.734 1094.93 212.321 1162.4 170.679 1214.38C161.025 1226.43 145.233 1243.06 143.442 1243.06C142.667 1243.06 144.664 1237.59 148.609 1228.9C177.457 1165.36 189.076 1122.85 197.487 1050.06C202.393 1007.61 209.886 977.685 223.908 944.545Z" fill="#C3BCB4"/>
<path d="M317.242 951.72C328.525 935.805 354.789 905.219 361.41 900.283C363.091 899.029 365.101 898.129 365.877 898.283C371.975 899.486 375.786 919.613 372.949 935.627C371.46 944.029 369.42 950.041 363.981 962.061C357.969 975.346 353.935 988.062 350.507 1004.53C345.529 1028.45 341.066 1041.89 323.766 1085.06C317.706 1100.19 307.9 1124.94 301.975 1140.06C288.97 1173.26 288.933 1173.35 263.651 1224.06C252.547 1246.34 239.675 1272.33 235.046 1281.83C229.092 1294.04 226.319 1298.78 225.565 1298.03C223.827 1296.29 224.406 1253.03 226.399 1235.64C229.726 1206.62 236.299 1172.85 245.099 1139.56C258.575 1088.6 265.14 1068.06 282.989 1021.06C298.733 979.602 301.628 973.742 317.242 951.72Z" fill="#C3BCB4"/>
<path d="M590.008 366.769C591.194 355.759 592.593 349.296 594.22 347.311C594.784 346.624 596.08 346.061 597.1 346.061C601.899 346.061 622.466 355.525 631.016 361.668C641.101 368.913 647.926 381.789 657.464 411.561C668.243 445.208 670.725 458.38 669.663 476.297C669.03 486.973 667.967 490.061 664.925 490.061C659.18 490.061 643.559 478.755 629 464.059C613.949 448.866 601.757 431.536 591.417 410.634C587.544 402.805 587.001 400.897 587.006 395.134C587.009 391.519 587.438 385.954 587.96 382.769C588.482 379.583 589.404 372.383 590.008 366.769Z" fill="#C3BCB4"/>
<path d="M515 439.715C522.425 436.576 538.85 428.869 551.5 422.587C564.15 416.305 575.696 411.141 577.157 411.113C579.536 411.066 580.363 412.136 585.042 421.311C593.742 438.367 599.998 446.361 625.933 473.561C640.835 489.189 644.595 494.348 643.383 497.505C642.182 500.636 640.253 500.242 583 485.17C572.275 482.346 558.391 478.692 552.146 477.049C545.901 475.405 539.216 474.061 537.29 474.061C532.11 474.061 522.684 476.735 512.301 481.15C507.242 483.301 502.552 485.061 501.88 485.061C501.207 485.061 498.777 483.099 496.479 480.7C490.505 474.465 480.527 467.938 473.12 465.42L466.739 463.251L471.12 460.485C476.704 456.96 497.605 447.066 515 439.715Z" fill="#C3BCB4"/>
<path d="M511.916 496.779C519.596 489.534 525.189 485.629 530.89 483.531C539.185 480.477 545.52 481.628 570.5 490.722C580.4 494.327 595.693 499.73 604.484 502.73C633.762 512.721 644.352 518.94 652.965 531.205C662.635 544.974 664.504 554.083 666.164 595.513C667.485 628.505 666.755 642.323 662.963 656.061C657.658 675.284 644.437 692.816 625.133 706.225C612.346 715.107 596.456 719.061 573.545 719.061C549.476 719.061 531.447 714.427 506.712 701.884C484.269 690.503 452.854 667.878 442.593 655.706C438.569 650.933 438.501 650.723 438.545 643.206C438.6 633.975 440.074 630.493 455.587 602.953C466.017 584.436 483.04 549.472 493.752 524.561C500.514 508.836 502.734 505.441 511.916 496.779Z" fill="#C3BCB4"/>
<path d="M451.412 749.061C454.048 706.893 455.349 696.855 458.598 693.606C459.448 692.756 460.774 692.061 461.544 692.061C462.315 692.061 471.62 695.478 482.223 699.654C501.272 707.158 528.523 717.157 558.663 727.703C560.953 728.505 563.99 730.324 565.413 731.747C569.06 735.393 568.829 740.515 563.96 764.061C561.742 774.786 557.474 795.936 554.476 811.061C547.882 844.324 546.041 851.208 540.972 861.561C536.426 870.847 529.107 879.95 509.078 901.235C488.304 923.311 482.768 931.529 475.516 951.061C473.984 955.186 472.361 958.969 471.908 959.469C469.952 961.626 464.91 953.917 463.035 945.9C462.477 943.513 460.665 928.961 459.009 913.561C450.363 833.151 448.575 794.428 451.412 749.061Z" fill="#C3BCB4"/>
<path d="M490.401 939.422C495.886 931.349 531.311 893.356 539.342 886.931C542.006 884.8 544.593 883.309 545.092 883.618C546.559 884.525 546.144 890.344 543.977 899.248C536.223 931.105 534.858 971.861 540.65 998.561C543.57 1012.02 552.906 1028.18 567.807 1045.56L569 1049.5L565.694 1051.83C557.445 1051.27 544.935 1046.64 535.708 1040.74C522.483 1032.28 509.187 1016.93 497.609 996.761C488.443 980.795 484 968.641 484 959.536C484 953.504 486.79 944.735 490.401 939.422Z" fill="#C3BCB4"/>
<path d="M466.584 1041.06C468.392 1030.43 477.6 989.517 478.523 988.023C479.761 986.021 480.979 987.344 487.078 997.311C501.737 1021.27 515.39 1035.98 536.028 1050.08C547.275 1057.76 548.768 1059.14 551.23 1064.08C553.726 1069.09 554.052 1071.11 555.018 1087.56C556.664 1115.6 559.58 1133.26 567.06 1160.53C575.467 1191.17 583.037 1210.81 600.23 1246.56C614.026 1275.25 616 1279.9 616 1283.72C616 1287.64 613.446 1287.52 604.452 1283.21C589.384 1275.98 571.211 1262.59 550.275 1243.29C505.812 1202.29 469.088 1139.25 463.955 1095.1C462.633 1083.72 463.956 1056.53 466.584 1041.06Z" fill="#C3BCB4"/>
<path d="M449.039 1154.34C450.725 1146.35 452.789 1138.18 453.624 1136.18C454.784 1133.41 455.339 1132.9 455.972 1134.03C458.72 1138.94 461.144 1262.68 459.056 1291.45C457.467 1313.34 452.486 1363.33 448.941 1392.95C442.697 1445.14 439.547 1476.3 437.771 1503.45C435.879 1532.38 436.143 1613.18 438.246 1649.28C439.912 1677.87 443.982 1769.21 443.867 1775.45C443.82 1778.04 443.693 1778.18 442.935 1776.45C441.329 1772.79 433.954 1745.27 429.881 1727.75C427.67 1718.23 423.433 1701.45 420.467 1690.45C403.39 1627.13 397.992 1601.41 391.507 1552.45C385.564 1507.59 384.738 1481.51 388.341 1452.45C389.159 1445.85 391.205 1429.42 392.888 1415.95C394.571 1402.47 396.643 1385.6 397.493 1378.45C399.706 1359.84 404.232 1334.31 410.524 1304.95C416.967 1274.88 420.37 1261.66 430.469 1227.48C438.192 1201.33 443.674 1179.74 449.039 1154.34Z" fill="#C3BCB4"/>
<path d="M468.792 1235.45C468.967 1204.71 469.78 1185.67 471.065 1182.2C472.057 1179.52 475.436 1179.21 476.438 1181.7C476.824 1182.66 479.081 1191.1 481.451 1200.45C483.822 1209.8 488.901 1229.6 492.739 1244.45C499.72 1271.47 510.748 1316.85 519.465 1354.45C522.016 1365.45 526.069 1381.42 528.471 1389.95C544.67 1447.43 548.283 1461 553.349 1483.45C557.803 1503.18 561.891 1526.22 562.929 1537.45C564.487 1554.3 564.193 1606.78 562.435 1625.45C559.245 1659.34 552.923 1705.39 548.363 1727.95C543.774 1750.65 535.378 1777.98 531.021 1784.4C529.507 1786.63 526.797 1791.37 524.999 1794.95C520.118 1804.66 467.561 1886.16 459.712 1896.2C458.1 1898.26 456.439 1899.95 456.022 1899.95C455.605 1899.95 454.981 1880.94 454.636 1857.7C453.898 1808.01 450.792 1731.62 447.917 1692.45C444.688 1648.44 443.903 1635.86 442.956 1612.95C441.507 1577.9 443.04 1541.76 448.429 1483.95C449.223 1475.42 450.799 1456.3 451.931 1441.45C454.598 1406.46 457.244 1379.97 460.92 1351.45C467.32 1301.79 468.515 1284.19 468.792 1235.45Z" fill="#C3BCB4"/>
<path d="M452.176 1936.95C461.834 1916.28 479.942 1886.25 488.048 1877.46C490.333 1874.98 492.647 1872.95 493.189 1872.95C494.399 1872.95 494.078 1875.31 488.434 1907.95C480.532 1953.64 478.394 1980.61 479.276 2023.45C479.616 2039.95 480.352 2059.3 480.913 2066.45C484.271 2109.31 487.643 2176.73 488.89 2225.95C490.51 2289.89 490.936 2302.49 491.999 2317.95C494.673 2356.81 501.481 2394.06 511.645 2425.45C516.702 2441.07 521.107 2453.12 521.582 2452.65C521.806 2452.43 520.377 2447.11 518.408 2440.85C510.838 2416.75 505.111 2392.4 502.441 2372.95C501.572 2366.62 500.206 2357.12 499.405 2351.83C495.014 2322.84 500.692 2231.72 510.507 2173.62C513.426 2156.35 517.842 2135.84 524.971 2106.45C527.772 2094.9 533.659 2069.25 538.052 2049.45C546.764 2010.19 553.512 1983.89 555.57 1981.18C556.683 1979.72 556.901 1981.14 556.991 1990.45C557.049 1996.5 557.24 2002.35 557.416 2003.45C557.592 2004.55 558.004 2009.95 558.331 2015.45C559.036 2027.3 563.662 2056.1 568.45 2078.45C573.379 2101.46 574.821 2110.51 576.135 2126.67C577.506 2143.54 576.21 2167.51 572.928 2185.95C569.223 2206.78 558.831 2241.77 544.301 2282.34C536.295 2304.69 529.586 2327.79 526.696 2342.95C524.841 2352.68 524.505 2357.92 524.516 2376.95C524.531 2401.89 525.104 2406.16 531.969 2432.45C536.152 2448.47 540.568 2473.29 541.593 2486.54C542.152 2493.77 542.025 2494.71 540.405 2495.33C537.96 2496.27 531.851 2489.71 515.245 2468.31C508.046 2459.04 498.706 2447.17 494.488 2441.95C483.571 2428.43 468.466 2402.97 459.3 2382.66C452.121 2366.75 447.36 2353.28 440.489 2329.45C433.05 2303.65 430.858 2293.07 423.502 2247.45C414.007 2188.56 412.523 2173.22 412.48 2133.45C412.4 2058.71 425.439 1994.16 452.176 1936.95Z" fill="#C3BCB4"/>
<path d="M177.922 1216.95C187.144 1203.62 223.991 1151.5 228.649 1145.2C234.301 1137.55 234.132 1142.38 227.449 1179.45C222.417 1207.35 220.346 1222.81 218.941 1242.95C218.384 1250.92 217.21 1265.1 216.331 1274.45C214.213 1297 214.748 1305.39 219.282 1320.73C225.587 1342.06 225.325 1358.39 218.463 1371.83C214.824 1378.95 211.993 1382.96 199.218 1399.07C189.155 1411.76 175.957 1430.05 170.068 1439.45C162.6 1451.38 153.793 1464.23 149.649 1469.25C142.723 1477.62 134.919 1479.67 133.374 1473.51C132.534 1470.16 133.591 1467.44 140.606 1454.87C147.306 1442.86 150.998 1433.24 149.323 1432.15C148.732 1431.76 148.027 1430.77 147.756 1429.95C146.834 1427.14 137.098 1444.12 131.417 1458.45C127.675 1467.89 117.207 1489.95 116.469 1489.95C116.144 1489.95 116.343 1489.08 116.913 1488.02C119.075 1483.98 117.81 1484.65 115.436 1488.8C112.606 1493.75 112.218 1495.24 114.503 1492.39C115.993 1490.53 116.012 1490.55 114.953 1492.73C114.345 1493.98 113.469 1494.77 113.007 1494.49C112.545 1494.2 111.408 1495.13 110.48 1496.54C107.219 1501.52 97.8137 1503.48 91.8977 1500.42C89.4927 1499.18 88.9477 1498.26 88.9477 1495.43C88.9477 1491.39 92.1107 1482.53 94.4927 1479.9C95.4117 1478.88 95.8097 1477.54 95.3907 1476.86C94.8767 1476.03 95.0577 1475.9 95.9627 1476.46C96.9327 1477.06 97.1117 1476.82 96.6287 1475.56C96.1857 1474.41 96.3487 1474.08 97.1287 1474.56C97.9097 1475.04 98.0727 1474.72 97.6287 1473.56C97.1857 1472.41 97.3487 1472.08 98.1287 1472.56C98.9097 1473.04 99.0727 1472.72 98.6287 1471.56C98.2667 1470.62 98.3267 1470.07 98.7627 1470.33C99.1977 1470.6 101.89 1466.13 104.745 1460.39C107.6 1454.65 109.719 1449.95 109.453 1449.95C109.187 1449.95 106.962 1453.89 104.509 1458.7C102.056 1463.51 100.026 1467.12 99.9987 1466.71C99.8747 1464.92 109.437 1447.12 110.019 1448.06C110.419 1448.71 110.912 1448.49 111.297 1447.48C111.664 1446.53 111.514 1446.1 110.937 1446.46C110.393 1446.79 109.948 1446.82 109.948 1446.51C109.948 1445.64 120.033 1427.57 121.144 1426.45C121.688 1425.9 119.802 1429.84 116.952 1435.2C114.102 1440.56 111.983 1444.95 112.244 1444.95C112.505 1444.95 115.661 1439.66 119.257 1433.2C125.51 1421.96 130.948 1409.41 130.948 1406.21C130.948 1402.75 127.756 1407.75 119.919 1423.51C115.423 1432.55 111.354 1439.7 110.878 1439.41C110.402 1439.11 108.369 1442.15 106.361 1446.16C104.353 1450.17 99.9767 1458.4 96.6367 1464.45C93.2967 1470.5 88.6637 1479.03 86.3407 1483.4C79.8147 1495.69 74.8997 1499.95 67.2647 1499.95C64.4537 1499.95 62.8777 1499.11 59.7097 1495.95C55.8037 1492.04 55.7177 1491.81 56.1297 1486.11C56.4927 1481.09 57.7247 1478.11 64.9127 1464.86C76.5137 1443.47 96.6337 1408.26 100.004 1403.45C104.377 1397.2 111.602 1384.71 112.439 1381.95C113.336 1378.99 113.178 1379.12 108.762 1384.95C100.374 1396.03 89.7897 1412.88 90.4997 1414.03C90.9627 1414.78 90.8417 1415 90.1877 1414.6C88.8057 1413.74 84.5777 1420.54 85.5317 1422.09C85.9557 1422.77 85.8257 1422.99 85.2187 1422.62C84.6317 1422.25 80.5467 1427.72 75.8137 1435.2C66.4657 1449.97 64.7717 1452.95 65.7157 1452.95C66.9537 1452.95 57.4327 1462.12 54.7067 1463.55C50.9667 1465.52 47.1737 1464.37 44.8567 1460.57C40.9897 1454.23 43.1967 1445.45 52.4447 1430.38C66.1857 1408 69.9477 1401.44 69.9477 1399.88C69.9477 1398.01 83.6397 1376.99 87.5227 1372.89C91.5287 1368.67 89.9697 1361.09 85.0367 1360.8C78.5007 1360.41 70.1077 1361.33 64.0567 1363.11C54.5157 1365.91 44.3497 1367.56 37.3637 1367.46C32.2657 1367.39 30.4397 1366.83 26.1047 1364.05C20.6827 1360.57 19.5827 1358.51 20.1237 1352.84C20.4017 1349.93 21.1547 1349.06 25.4477 1346.72C28.1977 1345.22 33.3727 1343.02 36.9477 1341.84C49.2757 1337.74 51.1477 1336.3 63.5847 1321.45C70.6407 1313.02 109.407 1275.2 116.464 1269.86C119.223 1267.77 125.748 1264.44 130.964 1262.45C149.658 1255.32 154.863 1250.27 177.922 1216.95Z" fill="#C3BCB4"/>
<path d="M78.3027 1433.95C77.7947 1433.95 78.0567 1433.46 81.6397 1427.7C82.9227 1425.64 84.1877 1423.95 84.4507 1423.95C84.7137 1423.95 83.5447 1426.2 81.8527 1428.95C80.1607 1431.7 78.5627 1433.95 78.3027 1433.95Z" fill="#C3BCB4"/>
<path d="M106.441 1448.95C106.184 1448.95 106.953 1446.93 108.15 1444.47C109.346 1442.01 110.497 1440.16 110.706 1440.37C111.159 1440.83 107.118 1448.95 106.441 1448.95Z" fill="#C3BCB4"/>
<path fill-rule="evenodd" clip-rule="evenodd" d="M658.585 23.1682C635.348 26.5572 613.27 38.5402 594.974 57.6952C572.725 80.9872 562.664 108.229 561.414 148.561C561.142 157.361 560.683 166.899 560.394 169.757L559.87 174.953L551.559 178.975C541.746 183.725 534.655 190.143 532.956 195.813C531.519 200.608 532.405 203.868 539.947 221.561C548.161 240.826 551.866 247.707 556.074 251.509C559.768 254.846 560.418 255.061 566.823 255.061H573.64L574.843 262.811C575.505 267.073 576.919 280.236 577.987 292.061C579.054 303.886 580.454 315.136 581.097 317.061C583.068 322.951 587.808 326.794 605.5 336.842C630.808 351.217 646.361 357.311 665 360.156C679.206 362.325 699.681 359.068 719.244 351.527C728.854 347.822 758.533 332.836 765.474 328.183C774.042 322.44 776.315 315.029 778.534 285.611C779.329 275.068 780.434 264.045 780.99 261.115C781.545 258.185 782 255.624 782 255.425C782 255.225 784.788 255.061 788.196 255.061C797.08 255.061 800.917 252.181 808.177 240.061C809.001 238.686 812.448 230.53 815.838 221.936C824.569 199.797 824.33 195.039 814.022 185.771C809.322 181.545 804.372 178.61 797.819 176.164C794.474 174.915 794.279 173.55 793.539 146.061C792.831 119.758 790.138 106.004 782.402 89.1782C770.212 62.6662 743.548 37.9622 716.598 28.2102C701.77 22.8452 676.098 20.6132 658.585 23.1682ZM751 347.936C737.77 352.189 721.65 361.85 716.772 368.452C709.093 378.843 695.392 414.528 689.487 439.518C685.03 458.381 683.986 483.925 687.477 488.699C690.1 492.286 701.413 486.904 713.71 476.221C724.555 466.798 751.501 433.167 760.955 417.253C767.692 405.914 769.331 400.049 768.554 390.061C767.494 376.431 764.003 353.003 762.492 349.388C760.865 345.493 759.24 345.288 751 347.936ZM649.2 369.261C647.321 371.14 647.759 374.2 651.044 382.167C661.436 407.368 667.807 429.593 670.427 449.777C672.54 466.062 674.297 469.578 679.05 467.034C682.074 465.416 682.897 462.946 684.508 450.657C686.96 431.953 695.628 401.081 702.224 387.561C707.764 376.205 709.102 372.119 707.971 370.007C706.977 368.149 705.647 368.061 678.665 368.061C658.014 368.061 650.077 368.384 649.2 369.261ZM771.66 414.311C770.317 416.099 767.619 420.763 765.664 424.678C760.029 435.959 746.807 452.305 722.82 477.643C711.591 489.504 708.196 494.522 709.355 497.543C709.695 498.431 711.175 499.061 712.918 499.061C716.378 499.061 743.588 492.49 773 484.552C811.89 474.056 813.777 473.669 820.5 474.8C823.8 475.355 832.015 477.957 838.755 480.581L851.01 485.352L856.755 480.394C867.266 471.323 879.666 464.093 884.75 464.071C885.987 464.065 887 463.68 887 463.214C887 461.975 867.401 452.55 844.5 442.775C833.5 438.08 813.925 429.027 801 422.657C788.075 416.286 776.735 411.071 775.801 411.068C774.866 411.064 773.003 412.523 771.66 414.311ZM890.5 467.419C888.85 468.2 883 471.945 877.5 475.74C870.522 480.556 866.486 484.141 864.146 487.601C860.895 492.409 860.806 492.807 861.241 500.561C861.909 512.476 866.528 524.739 882.146 556.061C899.954 591.777 916.757 621.277 922.396 626.727C926.283 630.484 928.417 631.44 944.11 636.451C953.682 639.507 969.701 644.246 979.708 646.981C1000.46 652.654 1010.3 656.352 1021 662.495C1025.12 664.864 1031.22 668.172 1034.55 669.846C1037.88 671.52 1042.9 674.707 1045.71 676.928C1050.09 680.392 1050.92 680.725 1051.48 679.264C1052.28 677.185 1051.26 633.364 1049.91 612.061C1048.19 584.823 1041.83 559.749 1032.86 544.822C1022.92 528.285 1001.49 505.145 985.756 493.965C977.403 488.028 958.061 478.437 946.724 474.611C937.902 471.634 913.463 467.25 901.5 466.5C895.773 466.141 892.647 466.402 890.5 467.419ZM798 485.64C792.775 487.554 775.9 493.417 760.5 498.668C726.754 510.176 715.805 515.197 707.79 522.842C697.215 532.93 692.017 542.743 689.417 557.532C686.496 574.146 684.904 632.717 687.02 645.751C691.154 671.223 710.607 697.854 733.911 709.942C747.391 716.935 758.018 719.175 777.611 719.154C808.385 719.12 828.816 713.301 856.97 696.55C878.193 683.923 908.51 659.558 912.574 651.861C914.91 647.436 914.334 639.034 911.083 630.126C909.479 625.731 903.598 613.991 898.015 604.039C885.392 581.537 873.388 557.237 860.486 528.061C850.87 506.316 850.313 505.338 843.901 498.91C832.32 487.3 822.284 482 812.091 482.111C809.449 482.14 803.467 483.638 798 485.64ZM654.698 506.696C653.212 508.183 654.177 510.678 658.872 517.492C664.797 526.089 669.003 534.382 671.893 543.165C676.196 556.242 678.035 556.013 682.961 541.785C686.645 531.146 690.458 523.94 696.713 515.796C702.139 508.73 702.08 506.467 696.477 506.792C685.671 507.42 663.982 507.385 659.948 506.733C657.445 506.329 655.082 506.312 654.698 506.696ZM953.311 651.464C947.127 654.275 945.753 664.912 948.519 688.567C953.885 734.448 964.262 776.469 986.302 841.561C1001.1 885.264 1011.79 906.908 1033.95 938.061C1040.36 947.072 1044.01 953.121 1054.14 971.55C1058.94 980.284 1061.36 981.876 1063.05 977.422C1063.63 975.89 1064.54 964.045 1065.07 951.099C1067.2 898.496 1070.8 881.404 1083.49 863.627C1092.37 851.188 1096.65 835.309 1097.67 811.061C1098.98 779.808 1094.27 758.77 1079.07 728.035C1071.35 712.411 1065.44 703.025 1058 694.561C1043.69 678.277 1030.79 671.113 993.749 658.866C967.566 650.211 959.368 648.71 953.311 651.464ZM675.5 663.172C671.033 665.352 652 693.733 652 698.214C652 702.499 671.333 731.344 675.468 733.229C677.061 733.954 678.356 733.941 679.77 733.184C683.541 731.166 701.36 705.458 702.707 700.092C703.413 697.278 700.994 692.471 692.252 679.324C686.664 670.919 679.362 662.007 678.165 662.129C677.799 662.166 676.6 662.636 675.5 663.172ZM934.629 673.618C932.562 683.522 930.846 699.223 929.827 717.561C928.818 735.738 928.883 740.712 930.316 754.561C933.793 788.158 945.246 822.531 964.044 855.781C974.357 874.023 983.552 887.061 986.104 887.061C989.915 887.061 981.704 852.72 958.947 773.478C951.77 748.487 945.007 717.196 938.935 680.878C938.321 677.202 937.239 673.402 936.531 672.434C935.358 670.831 935.189 670.936 934.629 673.618ZM884.5 695.121C875.655 698.918 813.848 722.063 804.5 725.079C790.68 729.537 787 732.513 787 739.234C787 741.285 788.765 751.422 790.923 761.762C793.081 772.101 796.258 787.986 797.984 797.061C804.229 829.897 809.772 852.072 813.857 860.561C818.188 869.562 826.399 880.128 841.378 895.979C866.777 922.854 873.494 932.664 879.943 952.3C881.16 956.007 882.644 959.341 883.241 959.71C885.201 960.921 889.881 954.266 891.943 947.336C893.051 943.61 895.077 930.661 896.444 918.561C906.727 827.57 907.892 798.505 903.506 742.439C900.923 709.42 899.46 696.81 897.862 693.811C896.514 691.281 892.534 691.671 884.5 695.121ZM622.447 721.897C600.354 730.784 593.62 734.563 586.965 741.813C580.81 748.517 577.582 755.403 574.56 768.275C573.232 773.932 569.368 790.29 565.974 804.625C562.58 818.96 559.735 833.075 559.651 835.991C559.404 844.641 560.413 844.66 577.687 836.318C605.958 822.667 620.933 818.126 649.5 814.543C667.547 812.279 669.641 811.641 671.688 807.774C673.104 805.1 673.46 800.726 673.814 781.683C674.1 766.335 673.867 757.56 673.106 755.022C671.937 751.119 664.619 739.45 653.221 723.311C647.754 715.571 646.265 714.075 644.094 714.147C642.667 714.195 632.926 717.682 622.447 721.897ZM707.415 716.811C703.862 720.874 687.142 744.929 684.651 749.561C682.682 753.223 682.472 755.337 682.168 774.561C681.788 798.544 682.436 807.177 684.828 810.017C686.199 811.644 689.744 812.464 704.5 814.567C740.359 819.675 757.37 825.325 787.726 842.21C791.045 844.057 792.332 844.325 793.726 843.46C796.561 841.701 796.332 837.436 792.493 820.487C790.508 811.728 787.34 797.361 785.452 788.561C780.377 764.902 778.282 757.38 774.801 750.308C771.523 743.649 765.826 737.811 758.291 733.389C753.321 730.472 713.407 714.061 711.283 714.061C710.478 714.061 708.737 715.298 707.415 716.811ZM630.736 828.115C620.274 829.196 610.248 832.41 597.732 838.694C585.235 844.969 577.781 850.149 569.735 858.154C558.488 869.343 555.339 879.411 552.335 913.785C550.6 933.644 550.969 938.061 554.366 938.061C555.141 938.061 561.8 935.004 569.164 931.267C583.929 923.775 595.372 919.621 605.71 917.999C609.445 917.413 625.014 916.675 640.309 916.36C672.767 915.69 671.595 916.053 672.979 906.233C674.646 894.395 675.263 863.062 674.075 850.561C671.928 827.986 671.777 827.823 652.657 827.459C645.421 827.322 635.556 827.617 630.736 828.115ZM692.5 827.649C691.4 827.918 689.496 828.353 688.268 828.614C687.041 828.876 685.354 830.409 684.52 832.022C682.231 836.449 680.758 861.52 681.462 884.061C682.263 909.689 682.661 912.806 685.35 914.501C686.971 915.523 694.514 915.992 716 916.406C753.572 917.13 759.597 918.428 785.962 931.48C793.366 935.146 800.341 938.013 801.462 937.853C803.183 937.606 803.551 936.704 803.825 932.061C804.51 920.446 799.644 884.152 795.969 873.472C791.145 859.449 775.566 846.229 751.635 835.849C737.474 829.708 728.931 827.982 710.5 827.541C701.7 827.331 693.6 827.379 692.5 827.649ZM1083.81 884.811C1076.09 892.86 1072.12 905.811 1071.28 925.729C1070.04 955.006 1075.21 989.305 1087.59 1033.89C1097.88 1070.94 1107.41 1093.02 1132.75 1138.51C1149.47 1168.53 1168.96 1197.24 1188.1 1220.06C1200.99 1235.42 1212 1245.81 1212 1242.62C1212 1242.37 1208.36 1233.93 1203.92 1223.87C1175.24 1158.94 1166.39 1126.37 1158.01 1055.06C1153.38 1015.73 1148.74 994.005 1138.76 965.061C1132.26 946.213 1127.57 935.427 1119.91 921.721C1106.89 898.417 1093.96 881.061 1089.61 881.061C1088.37 881.061 1085.83 882.7 1083.81 884.811ZM809.338 885.621C809.009 886.48 809.917 893.117 811.356 900.371C816.389 925.74 818 940.018 818 959.238C818 998.313 813.023 1013.67 791.484 1041.02C786.818 1046.95 783 1052 783 1052.23C783 1052.92 795.136 1051.32 799.28 1050.08C812.175 1046.23 824.606 1038.35 836.008 1026.82C845.289 1017.43 850.287 1010.4 858.97 994.505C876.722 962.013 875.378 949.808 850.939 921.561C843.042 912.433 822.255 891.607 816.173 886.729C812.4 883.702 810.211 883.348 809.338 885.621ZM986.681 899.861C983.043 903.881 981.664 910.168 981.592 923.061C981.512 937.578 983.187 944.777 990.364 960.777C996.917 975.385 1000.58 986.906 1004.49 1005.14C1010.03 1031.07 1015.34 1046.51 1038.8 1105.06C1044.86 1120.19 1051.95 1138.19 1054.56 1145.06C1062.86 1166.97 1068.13 1178.28 1098.51 1239.41C1118.86 1280.36 1128.53 1298.84 1129.11 1297.91C1130.54 1295.66 1130.1 1258.53 1128.44 1241C1126.24 1217.76 1120.96 1187.73 1113.86 1158.06C1100.83 1103.68 1095.35 1085.35 1077.97 1038.06C1057.35 981.969 1055.65 978.147 1042.76 959.061C1031.08 941.771 1001.69 906.682 993.47 900.216C990.133 897.591 988.798 897.521 986.681 899.861ZM619 928.038C610.657 928.625 605.973 929.624 596.197 932.902C574.387 940.216 555.586 951.28 553.38 958.099C550.461 967.124 559.929 1006.89 569.089 1024.08C572.633 1030.73 580.126 1039.56 583.862 1041.49C586.293 1042.75 634.301 1055.5 648.5 1058.66C656.474 1060.43 664.443 1060.4 667.958 1058.58C670.112 1057.47 670.954 1056.17 671.373 1053.33C672.406 1046.33 674.268 978.662 673.789 965.561C673.188 949.151 670.085 935.308 665.976 930.706L663.169 927.561L646.334 927.431C637.075 927.359 624.775 927.632 619 928.038ZM691.19 929.087C687.094 931.584 685.476 935.348 683.383 947.257C681.959 955.358 681.832 962.382 682.399 1001.56C682.757 1026.31 683.422 1048.73 683.877 1051.38C685.126 1058.66 686.571 1059.59 696.289 1059.4C702.819 1059.26 710.745 1057.67 735 1051.6C751.775 1047.4 767.838 1042.9 770.696 1041.59C780.059 1037.32 789.023 1022.88 795.392 1001.82C801.927 980.212 805.037 961.98 803.019 957.107C800.443 950.889 780.296 939.45 759.902 932.627C747.469 928.468 735.101 927.061 711 927.066C696.214 927.068 694.156 927.278 691.19 929.087ZM873.667 989.311C872.328 991.098 868.39 997.061 864.916 1002.56C852.165 1022.75 840.979 1034.95 825.04 1046.06C809.048 1057.21 807.576 1058.49 804.689 1063.84C801.709 1069.36 801.26 1072.33 799.022 1101.24C797.257 1124.03 792.71 1145.73 783.456 1175.54C775.097 1202.46 769.184 1217.2 753.745 1249.56C739.624 1279.17 737.469 1286.06 742.339 1286.06C746.509 1286.06 764.267 1276.55 774.511 1268.83C796.473 1252.27 813.905 1235.48 833.434 1212.06C847.359 1195.36 854.015 1186.1 863.439 1170.29C877.19 1147.22 886.754 1123.67 890.54 1103.56C892.679 1092.2 892.101 1057.65 889.538 1043.56C886.807 1028.55 878.889 990.899 877.94 988.402C876.793 985.386 876.572 985.433 873.667 989.311ZM763.536 1052.15C745.498 1054.6 710.133 1064.69 698 1070.84C691.359 1074.21 688.836 1078.25 686.623 1089.06C681.355 1114.79 679.807 1151.8 680.203 1242.56L680.5 1310.56L685.661 1310.35C691.929 1310.1 700.467 1307.2 707.89 1302.82C741.104 1283.22 773.682 1205.38 784.388 1120.06C785.25 1113.19 786.71 1101.49 787.63 1094.06C790.064 1074.43 790.007 1064.53 787.431 1059.62C786.294 1057.45 784.262 1054.85 782.917 1053.85C779.855 1051.56 772.57 1050.93 763.536 1052.15ZM900.578 1136.81C898.782 1150.79 897.96 1168.37 897.479 1203.06C897.186 1224.24 896.764 1246.02 896.542 1251.46C895.939 1266.24 897.71 1301.43 899.97 1319.56C904.424 1355.29 908.211 1389.09 912.536 1431.68C919.442 1499.69 919.874 1505.09 921.167 1539.71C922.419 1573.25 921.876 1596.46 918.512 1653.06C915.607 1701.94 914.977 1716.05 914.476 1743.56C914.003 1769.51 914.079 1771.27 915.506 1767.59C916.934 1763.91 932.46 1705.94 942.566 1666.56C959.932 1598.89 969.634 1540.78 970.701 1498.06C971.28 1474.88 970.148 1457.55 965.508 1418.56C956.269 1340.92 945.392 1287.34 926.044 1224.14C916.472 1192.88 915.07 1187.5 911.112 1166.9C906.777 1144.35 903.57 1132.06 902.016 1132.06C901.561 1132.06 900.913 1134.2 900.578 1136.81ZM881.237 1182.31C880.682 1183 877.861 1192.79 874.968 1204.06C872.074 1215.34 867.788 1231.99 865.444 1241.06C863.099 1250.14 856.197 1279.16 850.105 1305.56C839.188 1352.87 836.218 1364.41 816.136 1437.51C799.419 1498.36 795.776 1517.37 793.902 1553.56C791.64 1597.26 795.482 1648.26 805.58 1708.56C812.17 1747.92 818.858 1775.32 824.236 1784.99C829.968 1795.3 841.609 1813.34 869.462 1855.06C896.576 1895.68 899.642 1900.06 900.955 1900.06C901.31 1900.06 902.143 1877.22 902.807 1849.31C904.373 1783.48 906.526 1731.8 909.011 1700.38C913.509 1643.5 914.641 1567.58 911.624 1525.06C905.89 1444.24 902.861 1411.7 895.006 1346.56C889.635 1302.03 889.13 1293.47 888.07 1229.06C887.667 1204.59 886.989 1183.77 886.562 1182.81C885.661 1180.78 882.698 1180.5 881.237 1182.31ZM862.253 1191.2C854.532 1203.82 836.723 1228.59 828.752 1237.8C819.091 1248.95 797.73 1269.12 783.205 1280.8C769.674 1291.68 758.69 1298.98 738.479 1310.53C718.681 1321.84 712.442 1326.7 711.052 1331.89C709.36 1338.21 707.794 1363.14 708.465 1373.06C709.482 1388.11 716.807 1458.1 719.035 1474.06C723.403 1505.34 733.535 1558.19 743.009 1599.1C748.539 1622.98 750.094 1628.26 751.763 1628.82C753.597 1629.43 754.628 1626.33 758.836 1607.56C761.056 1597.66 764.901 1580.79 767.38 1570.06C769.859 1559.34 773.733 1542.46 775.989 1532.56C786.244 1487.56 805.602 1418.49 825.134 1357.22C830.158 1341.46 836.261 1322.26 838.697 1314.56C849.621 1280.03 862.29 1231.34 865.979 1209.71C868.142 1197.03 868.64 1185.06 867.003 1185.06C866.455 1185.06 864.318 1187.82 862.253 1191.2ZM774.125 1581.81C772.739 1585.22 766.048 1614.14 762.613 1631.56C751.926 1685.77 749.679 1750.92 756.595 1806.06C760.367 1836.13 770.015 1879.03 779.641 1908.53C785.618 1926.85 793.749 1947.06 795.143 1947.06C795.614 1947.06 796.004 1935.02 796.009 1920.31C796.024 1873.21 798.698 1848.94 808.483 1807.06C809.719 1801.77 809.807 1798.88 808.954 1791.56C807.66 1780.46 802.674 1754.78 799.45 1742.63C791.429 1712.38 783.911 1659.62 780.116 1606.93C779.1 1592.84 777.957 1580.8 777.576 1580.18C776.444 1578.35 775.314 1578.89 774.125 1581.81ZM887.127 2424.81C878.762 2438.89 869.385 2451.38 857.555 2464.23C836.961 2486.58 827.981 2497.47 824.718 2504.06L821.5 2510.56L821.661 2529.56C821.749 2540.01 822.514 2556.89 823.36 2567.06C824.667 2582.78 825.652 2588.56 829.913 2605.53C836.969 2633.63 838.738 2635.75 863.128 2645.5C880.436 2652.41 885.304 2655.28 901.641 2668.17C915.356 2679 924.495 2684.73 934.824 2688.99C946.274 2693.71 951.347 2694.57 967.5 2694.5C984.579 2694.43 994.062 2692.48 1013.04 2685.14C1029.92 2678.61 1040.14 2673.07 1042.34 2669.26C1044.23 2665.99 1044.22 2665.89 1042.06 2659.3C1040.86 2655.64 1037.8 2649.48 1035.25 2645.6C1028.26 2634.96 1005.66 2612.87 992.49 2603.81C966.96 2586.25 960.115 2580.07 937.477 2554.06C929.097 2544.44 919.73 2533.86 916.66 2530.56C913.59 2527.26 910.846 2523.44 910.562 2522.06C908.761 2513.33 901.612 2464.87 899.483 2446.97C898.083 2435.19 896.697 2424.66 896.402 2423.56C895.353 2419.65 893.747 2416.06 893.042 2416.06C892.649 2416.06 889.987 2420 887.127 2424.81Z" fill="#C3BCB4"/>
<path d="M453.168 2446.68C454.982 2432.38 456.961 2419.44 457.565 2417.93C458.169 2416.42 459.012 2415.2 459.438 2415.23C459.864 2415.25 462.688 2419.34 465.713 2424.32C474.224 2438.32 486.881 2454.61 502.198 2471.28C522.094 2492.93 526.047 2498.03 529.635 2506.65L532.796 2514.24L531.718 2530.96C530.114 2555.82 527.797 2583.97 527.103 2587.01C525.123 2595.69 517.332 2624 516.461 2625.68C512.125 2634.04 506.461 2637.78 485.489 2646.12C472.624 2651.23 466.365 2654.89 455.107 2663.89C427.65 2685.84 416.681 2691.29 396.006 2693.25C375.95 2695.15 362.331 2692.31 329.713 2679.46C316.4 2674.21 310.006 2670.2 309.08 2666.51C308.079 2662.52 311.238 2654.09 316.965 2645.47C323.611 2635.46 346.571 2612.52 357.713 2604.76C387.399 2584.07 396.653 2575.77 415.636 2552.82C422.396 2544.65 431.016 2534.71 434.792 2530.74L441.657 2523.51L443.218 2513.6C444.076 2508.14 445.924 2496.71 447.324 2488.18C448.724 2479.66 451.354 2460.98 453.168 2446.68Z" fill="#C3BCB4"/>
<path d="M1126.4 1174.68C1124.48 1164.9 1122.63 1153.54 1122.29 1149.43C1121.87 1144.49 1122.01 1141.95 1122.7 1141.95C1123.27 1141.95 1128.52 1148.81 1134.35 1157.2C1140.19 1165.59 1149.76 1179.2 1155.62 1187.45C1161.48 1195.7 1170.77 1208.97 1176.26 1216.95C1187.95 1233.91 1195.58 1243.46 1203.14 1250.59C1209.3 1256.39 1213.26 1258.62 1225.01 1262.91C1229.62 1264.59 1235.66 1267.77 1238.82 1270.18C1245.3 1275.11 1288.32 1317.79 1298.17 1329.06C1303.88 1335.59 1305.8 1337.07 1311.64 1339.45C1323.41 1344.24 1333.37 1349.02 1334.16 1350.26C1335.59 1352.5 1334.95 1357.68 1332.93 1360.24C1331.82 1361.65 1329.23 1363.85 1327.18 1365.13C1323.8 1367.23 1322.39 1367.43 1312.35 1367.27C1302.5 1367.12 1300.03 1366.69 1290.35 1363.44C1280.6 1360.17 1278.72 1359.85 1272.57 1360.39C1268.79 1360.72 1265.3 1361.23 1264.82 1361.53C1264.34 1361.82 1263.95 1363.63 1263.95 1365.54C1263.95 1368.19 1265.23 1370.73 1269.36 1376.23C1272.34 1380.2 1275.88 1385.47 1277.23 1387.95C1280.23 1393.45 1296.37 1421.38 1300.92 1428.95C1311.17 1445.99 1313.49 1455.88 1308.61 1461.56C1305.84 1464.77 1301.46 1465.17 1297.48 1462.56C1294.52 1460.62 1291.45 1456.03 1279.88 1436.24C1271.99 1422.75 1268.87 1418.24 1270.36 1422.45C1271.88 1426.74 1268.94 1422.04 1262.86 1410.45C1253.99 1393.53 1243.95 1378.14 1243.95 1381.46C1243.95 1382.34 1246.11 1386.35 1246.91 1386.95C1248.07 1387.82 1257.56 1404.13 1261.47 1411.95C1263.52 1416.07 1267.19 1422.95 1269.62 1427.23C1272.04 1431.51 1273.71 1435.52 1273.33 1436.14C1272.92 1436.81 1273.09 1436.98 1273.75 1436.57C1275 1435.8 1279.18 1443.18 1279.36 1446.45C1279.47 1448.5 1284.58 1458.95 1285.48 1458.95C1285.75 1458.95 1284.61 1456.25 1282.95 1452.95C1278.31 1443.77 1280.09 1445.81 1286.22 1456.7C1295.12 1472.5 1297.12 1476.79 1294.96 1475.46C1294.39 1475.11 1294.22 1475.51 1294.56 1476.39C1294.89 1477.24 1295.56 1477.69 1296.05 1477.38C1296.54 1477.08 1297 1477.2 1297.08 1477.64C1297.15 1478.09 1297.38 1479.35 1297.59 1480.45C1299.52 1490.56 1298.78 1494.36 1294.18 1497.98C1291.14 1500.38 1284.12 1500.61 1279.95 1498.45C1275.65 1496.22 1273.06 1492.28 1262.89 1472.45C1252.42 1452.02 1245.43 1439.38 1239.37 1429.95C1237.08 1426.37 1233.52 1420.07 1231.46 1415.95C1227.65 1408.29 1225.31 1404.95 1223.77 1404.95C1223.3 1404.95 1223.2 1406.19 1223.56 1407.7C1224.39 1411.18 1233.61 1430.95 1234.4 1430.95C1234.72 1430.95 1234.07 1429.15 1232.95 1426.95C1231.83 1424.75 1231.13 1422.95 1231.41 1422.95C1232.5 1422.95 1235.98 1431.09 1235.33 1432.14C1234.92 1432.81 1235.09 1432.98 1235.75 1432.57C1237.14 1431.72 1241.32 1439.54 1240.33 1441.14C1239.92 1441.81 1240.09 1441.98 1240.76 1441.56C1242.15 1440.71 1250.32 1456.53 1249.33 1458.15C1248.88 1458.87 1249.1 1458.97 1249.96 1458.44C1250.93 1457.84 1251.11 1458.08 1250.63 1459.34C1250.19 1460.49 1250.35 1460.82 1251.13 1460.34C1251.91 1459.85 1252.07 1460.18 1251.63 1461.34C1251.27 1462.28 1251.37 1462.81 1251.85 1462.51C1252.34 1462.21 1253 1462.66 1253.33 1463.51C1253.67 1464.4 1253.5 1464.79 1252.93 1464.44C1252.36 1464.09 1252.43 1464.91 1253.09 1466.35C1253.72 1467.75 1254.62 1468.65 1255.08 1468.37C1255.55 1468.08 1255.63 1468.62 1255.27 1469.56C1254.82 1470.72 1254.99 1471.04 1255.77 1470.56C1256.55 1470.08 1256.71 1470.41 1256.27 1471.56C1255.82 1472.72 1255.99 1473.04 1256.77 1472.56C1257.55 1472.08 1257.71 1472.41 1257.27 1473.56C1256.78 1474.82 1256.96 1475.06 1257.93 1474.46C1258.77 1473.94 1259.02 1474.03 1258.6 1474.7C1258.24 1475.28 1259.8 1479.62 1262.06 1484.33C1265.45 1491.4 1266.06 1493.54 1265.51 1496.47C1265.03 1499.03 1264.13 1500.31 1262.33 1500.99C1256.19 1503.33 1248.47 1501.38 1243.79 1496.32C1240.67 1492.95 1233.28 1479.55 1220.72 1454.5C1215.75 1444.57 1210.82 1435.01 1209.76 1433.25C1207.61 1429.65 1204.95 1429.76 1204.95 1433.45C1204.95 1435.91 1211.15 1448.65 1213.82 1451.69C1214.72 1452.7 1215.59 1454.17 1215.77 1454.96C1215.95 1455.74 1216.54 1457.08 1217.1 1457.92C1217.94 1459.21 1218.01 1459.17 1217.55 1457.7C1216.61 1454.66 1217.83 1455.8 1219.93 1459.91C1222.19 1464.34 1222.42 1465.36 1220.95 1464.45C1219.69 1463.67 1219.69 1464.15 1221 1467.59C1221.58 1469.11 1221.77 1472.07 1221.41 1474.15C1220.81 1477.74 1220.57 1477.95 1217.11 1477.94C1209.54 1477.93 1206.22 1474.22 1190.29 1447.95C1183.04 1436 1172.4 1420.62 1166.07 1412.95C1150.49 1394.07 1139.64 1379.14 1135.65 1371.09L1131.45 1362.6V1347.52C1131.45 1333.32 1131.63 1331.87 1134.64 1322.45C1138.7 1309.76 1140.23 1300.19 1139.53 1291.95C1138.62 1281.26 1136.1 1249.42 1134.98 1234.45C1133.69 1217.07 1130.92 1197.77 1126.4 1174.68Z" fill="#C3BCB4"/>
<path d="M1274.5 1430.95C1274.22 1430.95 1273.3 1429.6 1272.45 1427.95C1271.59 1426.3 1271.12 1424.95 1271.4 1424.95C1271.67 1424.95 1272.59 1426.3 1273.45 1427.95C1274.3 1429.6 1274.77 1430.95 1274.5 1430.95Z" fill="#C3BCB4"/>
<path d="M813.924 1829.74C815.515 1821.65 817.721 1812.99 818.826 1810.49C820.994 1805.59 821.337 1805.4 824.614 1807.23C830.152 1810.34 835.741 1822.33 841.438 1843.33C849.137 1871.7 854.289 1889.82 856.972 1897.96C860.82 1909.63 866.454 1939.15 868.516 1958.45C869.974 1972.11 870.128 1980.45 869.563 2015.45C869.199 2038 868.667 2060.72 868.38 2065.95C865.811 2112.73 861.27 2169.48 859.818 2172.94C858.852 2175.24 858.675 2175.3 857.499 2173.69C856.038 2171.69 845.43 2128.71 840.904 2106.45C837.204 2088.25 820.995 2017.45 812.973 1984.45C807.796 1963.15 807 1958.48 805.909 1942.95C803.604 1910.14 806.692 1866.52 813.924 1829.74Z" fill="#C3BCB4"/>
<path d="M870.422 1916.83C866.905 1900.1 862.817 1872.41 863.727 1871.5C866.266 1868.96 889.65 1904.32 902.71 1930.45C908.428 1941.89 917.077 1963.37 922.437 1979.45C937.238 2023.84 944.958 2076.82 944.938 2133.86C944.924 2173.88 943.552 2187.91 933.347 2252.45C925.989 2298.98 913.824 2345.15 900.277 2377.95C892.607 2396.52 875.233 2425.66 862.411 2441.45C859.285 2445.3 852.119 2454.52 846.487 2461.95C835.416 2476.55 822.729 2491.64 819.731 2493.79C816.491 2496.1 815.024 2493.74 815.607 2487.14C816.628 2475.57 821.948 2445.09 824.977 2433.45C826.695 2426.85 828.963 2418.13 830.018 2414.06C832.582 2404.19 833.63 2375.09 832.043 2357.84C830.013 2335.78 823.294 2310.25 808.261 2267.45C793.762 2226.17 785.878 2196.45 782.797 2171.45C781.159 2158.16 781.189 2126.04 782.851 2112.95C783.584 2107.17 786.82 2089.32 790.042 2073.27C797.705 2035.12 798.971 2025.55 799.649 2000.7C800.185 1981.06 800.885 1977.02 802.851 1982.2C804.036 1985.32 820.598 2054.46 828.425 2088.95C831.982 2104.62 837.164 2127.12 839.941 2138.95C850.895 2185.59 855.601 2225.24 858.023 2291.29C859.195 2323.25 858.465 2343.73 855.491 2362.31C854.686 2367.33 853.082 2377.52 851.927 2384.95C849.637 2399.66 845.682 2416.8 840.302 2435.31C838.404 2441.84 837.043 2447.38 837.276 2447.61C837.803 2448.14 847.95 2417.65 851.307 2405.45C854.754 2392.92 857.463 2379.76 859.847 2363.95C864.384 2333.87 865.683 2315.36 866.943 2262.8C868.047 2216.8 869.254 2186.48 871.437 2149.95C872.242 2136.47 873.38 2116.9 873.966 2106.45C874.551 2096 875.694 2078.22 876.504 2066.95C880.152 2016.23 877.487 1950.45 870.422 1916.83Z" fill="#C3BCB4"/>
<path d="M578.515 1591.45C578.832 1587.6 579.315 1583.66 579.587 1582.7C580.235 1580.41 582.615 1580.46 583.857 1582.78C585.649 1586.13 593.985 1624.57 596.904 1642.95C601.622 1672.66 604.958 1713.49 604.938 1741.31C604.908 1785 596.607 1843.25 583.927 1888.74C577.921 1910.29 564.974 1944.95 562.93 1944.95C562.52 1944.95 561.948 1930.44 561.659 1912.7C560.961 1869.93 557.86 1841.59 550.893 1814.34C546.42 1796.83 546.38 1795.4 549.89 1777.95C551.604 1769.42 554.102 1758.4 555.44 1753.45C559.073 1740.01 564.604 1714.09 566.858 1699.95C570.11 1679.54 575.022 1633.83 578.515 1591.45Z" fill="#C3BCB4"/>
<path d="M514.412 1848.45C521.667 1824.32 526.789 1812.1 531.216 1808.38C535.269 1804.97 536.787 1805.33 538.924 1810.2C542.64 1818.68 548.732 1854.48 551.05 1881.45C552.483 1898.13 552.539 1936.24 551.152 1950.95C550.434 1958.57 546.719 1975.31 537.616 2011.95C530.716 2039.72 522.557 2074.82 519.486 2089.95C516.415 2105.07 511.9 2125.1 509.453 2134.45C507.006 2143.8 503.754 2156.59 502.226 2162.88C499.424 2174.41 497.613 2177.4 496.554 2172.25C496.237 2170.71 495.076 2157.52 493.975 2142.95C488.57 2071.44 486.381 1981.93 489.356 1954.13C492.284 1926.78 497.58 1904.44 514.412 1848.45Z" fill="#C3BCB4"/>
<path d="M500.956 1254.45C493.506 1225.51 487.284 1191.44 488.538 1186.45C488.883 1185.07 489.463 1183.95 489.826 1183.95C490.19 1183.95 492.482 1187.21 494.919 1191.2C501.484 1201.94 520.328 1228.14 528.516 1237.91C536.81 1247.8 548.272 1259 562.448 1271.05C583.585 1289.01 593.737 1296.02 620.318 1310.97C639.433 1321.72 645.378 1326.35 646.982 1331.76C648.714 1337.59 649.352 1373.59 648.031 1390.95C645.77 1420.66 638.498 1476.91 632.839 1508.45C627.269 1539.49 611.886 1612.47 608.346 1624.65C607.431 1627.8 606.289 1629.9 605.611 1629.68C603.924 1629.12 600.892 1617.79 593.444 1584.19C585.37 1547.77 577.566 1515.6 570.844 1491.02C557.274 1441.39 537.758 1374.25 527.952 1343.46C511.859 1292.93 505.267 1271.19 500.956 1254.45Z" fill="#C3BCB4"/>
<path d="M566.201 1066.88C566.506 1061.16 567.014 1059.63 569.723 1056.26L572 1054L576 1051.83L582.225 1051.68C589.396 1051.78 595.356 1052.75 608.5 1055.95C628.079 1060.72 651.46 1068.02 658 1071.39C666.514 1075.78 667.471 1078.56 670.941 1109.06C675.333 1147.67 676.195 1167.41 676.136 1228.06C676.083 1281.58 675.853 1291.8 674.383 1305.94L673.824 1311.32L669.076 1310.76C647.075 1308.15 625.545 1288.09 608.758 1254.56C594.39 1225.86 580.668 1182.03 574.053 1143.7C571.074 1126.44 565.783 1074.68 566.201 1066.88Z" fill="#C3BCB4"/>
<path fill-rule="evenodd" clip-rule="evenodd" d="M654.485 1.35454C633.287 5.27454 618.921 11.5645 598.993 25.6495C584.56 35.8505 565.511 57.9755 557.541 73.7955C548.14 92.4565 541.013 124.624 540.971 148.591C540.964 152.875 540.709 157.305 540.406 158.436C540.102 159.566 537.511 161.892 534.649 163.604C527.481 167.892 518.437 177.665 515.222 184.599C512.997 189.398 512.55 191.739 512.593 198.38C512.65 207.321 513.981 211.402 524.945 236.239C534.302 257.437 540.417 265.938 551.008 272.475L556.756 276.023L557.456 286.701C559.46 317.274 562.24 328.406 570.108 337.367L573.194 340.882L570.567 358.131C569.122 367.618 567.5 378.958 566.962 383.331C566.424 387.704 565.646 391.617 565.234 392.027C564.167 393.089 529.176 409.52 489.485 427.598L455.485 443.084L435.594 446.46C412.791 450.33 404.552 452.425 390.509 457.921C366.547 467.298 343.518 484.542 322.89 508.553C307.901 525.999 301.623 536.362 295.7 553.432C288.506 574.165 285.346 594.373 284.448 625.38C284.162 635.28 283.731 648.105 283.491 653.88C283.252 659.655 283.04 667.574 283.02 671.478L282.985 678.575L276.542 687.117C265.589 701.638 258.479 714.315 249.727 734.931C241.24 754.921 238.109 770.795 237.311 797.88C236.508 825.162 238.798 841.042 246.02 858.27L248.908 865.16L245.197 869.385C234.709 881.323 219.175 906.107 208.846 927.38C201.885 941.716 191.31 971.664 186.585 990.422C183.403 1003.06 182.03 1011.71 177 1050.88C174.775 1068.2 171.809 1088.9 170.407 1096.88C163.554 1135.88 150.745 1174.47 129.743 1219.38C125.371 1228.73 121.113 1238.02 120.281 1240.02C119.429 1242.07 117.617 1244.18 116.127 1244.86C109.63 1247.82 99.0831 1256.75 76.7001 1278.26C63.4671 1290.98 49.9691 1304.73 46.7061 1308.83C41.4641 1315.41 40.9881 1316.36 42.6281 1317.01C43.6501 1317.41 44.7441 1317.77 45.0621 1317.81C45.3791 1317.85 48.6891 1314.39 52.4171 1310.13C61.0791 1300.23 97.2631 1265.34 106.678 1257.82C110.634 1254.66 115.743 1251.25 118.032 1250.24C122.804 1248.13 123.004 1247.79 135.214 1220.88C151.828 1184.26 162.081 1156.18 168.988 1128.38C174.708 1105.36 177.436 1089.31 183.011 1045.88C185.729 1024.7 189.086 1002.43 190.471 996.38C193.526 983.032 200.78 959.946 206.172 946.411C217.063 919.072 236.153 887.086 250.226 872.597L255.967 866.686L252.536 859.533C244.337 842.441 241.421 824.626 242.279 796.88C243.108 770.063 246.454 755.188 257.04 731.247C265.191 712.817 268.73 706.671 279.344 692.509L288.281 680.586L289.073 646.983C289.986 608.211 291.857 584.93 295.07 572.38C297.91 561.282 303.491 546.443 307.413 539.561C324.244 510.027 353.466 481.743 381.485 467.866C400.675 458.362 414.43 454.499 443.985 450.313C453.645 448.945 457.962 447.816 462.985 445.342C466.56 443.581 472.86 440.672 476.985 438.878C486.16 434.888 532.569 413.522 554.735 403.084C563.673 398.875 570.985 394.871 570.985 394.186C570.985 389.613 576.259 353.048 577.769 347.15L579.621 339.919L576.239 336.65C571.613 332.177 566.231 320.752 565.042 312.88C564.502 309.305 563.59 300.305 563.014 292.88C561.256 270.188 561.596 271.385 556.343 269.379C550.883 267.294 542.787 259.413 538.236 251.754C535.077 246.438 528.488 232.188 521.186 214.88C518.173 207.739 517.593 205.181 517.557 198.88C517.504 189.663 519.755 184.194 526.664 176.754C530.745 172.36 540.836 164.771 544.029 163.695C544.544 163.522 545.431 155.61 546.001 146.114C548.053 111.901 554.474 87.5975 566.604 68.1365C580.083 46.5105 600.14 28.3485 623.485 16.6305C640.228 8.22554 655.747 4.89053 678.136 4.88353C703.187 4.87653 722.768 9.72953 740.589 20.3645C767.568 36.4645 785.003 54.9625 797.065 80.2865C806.134 99.3245 809.504 115.44 810.588 144.957L811.27 163.535L815.851 165.957C821.901 169.157 832.436 179.087 835.714 184.68C839.113 190.481 839.928 201.561 837.608 210.449C835.052 220.241 822.398 248.547 817.52 255.383C812.771 262.038 805.282 268.265 800.621 269.435C799.083 269.821 797.438 271.092 796.966 272.258C796.493 273.425 795.616 282.03 795.016 291.38C793.4 316.596 790.882 325.064 782.008 335.126L777.822 339.872L779.372 344.626C780.859 349.185 784.183 372.969 785.579 389.035L786.244 396.69L799.894 403.231C815.457 410.688 853.346 427.863 867.78 434.004C873.118 436.274 882.614 440.551 888.882 443.506C895.15 446.462 901.527 448.88 903.053 448.88C907.865 448.88 934.868 453.76 945.387 456.531C973.08 463.825 995.8 477.053 1017.68 498.62C1033.63 514.333 1044.5 528.751 1051.44 543.38C1055.51 551.953 1060.64 566.318 1062.51 574.38C1064.88 584.591 1066.9 609.392 1067.97 641.556C1069.42 685.372 1068.43 679.984 1077.24 691.686C1087.24 704.954 1091.57 712.549 1098.77 729.385C1109.87 755.364 1113.77 772.14 1114.7 797.885C1115.6 822.915 1112.02 844.385 1104.47 859.335L1100.96 866.289L1105.85 871.335C1121.35 887.314 1142.79 924.613 1153.35 953.974C1164.98 986.272 1168.31 1001.19 1174.02 1046.59C1180.84 1100.72 1183.42 1114.39 1193.01 1147.38C1200.69 1173.77 1209.47 1195.73 1225.64 1228.97C1234.74 1247.69 1235.35 1248.66 1239.32 1250.59C1241.61 1251.71 1245.89 1254.52 1248.83 1256.85C1257.59 1263.78 1297.93 1303.21 1305.49 1312.23C1312.1 1320.12 1312.71 1320.58 1316.49 1320.61L1320.49 1320.63L1315.01 1314.5C1312 1311.14 1297.6 1296.45 1283.01 1281.86C1263.67 1262.52 1254.14 1253.75 1247.83 1249.49L1239.17 1243.64L1231.92 1229.01C1216.1 1197.1 1206.1 1172.93 1199.37 1150.38C1188.72 1114.7 1185.8 1099.37 1178.46 1040.88C1174.46 1008.99 1171.78 994.636 1166.47 976.652C1162.18 962.141 1154.26 940.664 1148.97 929.22C1140.46 910.813 1125.94 887.044 1114.66 873.094C1108.14 865.025 1108.01 864.738 1109.4 862.054C1111.72 857.556 1115.89 843.861 1117.54 835.332C1119.72 824.01 1120.45 800.63 1119.09 785.924C1116.98 763.189 1112.8 747.706 1102.6 724.934C1095.51 709.108 1089.52 698.714 1080.96 687.38L1074.16 678.38L1073.51 652.88C1072.71 620.869 1071.37 598.736 1069.39 584.479C1066.31 562.345 1055.49 535.932 1042.32 518.38C1033.63 506.801 1013.01 486.194 1001.49 477.564C979.029 460.753 948.262 449.572 911.466 444.852C905.841 444.13 899.869 442.574 895.485 440.687C858.131 424.607 818.828 406.832 802.338 398.559L791.191 392.967L790.529 386.673C788.964 371.808 785.773 348.085 784.869 344.595C783.953 341.055 784.123 340.537 787.502 336.595C792.468 330.8 796.679 321.579 797.888 313.851C798.445 310.292 799.367 300.22 799.938 291.468C800.509 282.716 801.09 275.461 801.23 275.345C801.37 275.229 803.06 274.346 804.985 273.383C816.102 267.819 824.055 257.176 833.431 235.32C841.821 215.763 844.388 206.057 843.759 196.267C842.935 183.425 835.093 172.007 821.213 163.44L815.234 159.749L814.753 139.565C814.343 122.33 813.878 117.657 811.571 107.595C802.501 68.0355 781.197 38.9305 745.581 17.4405C730.781 8.51054 715.968 3.30353 698.663 0.945528C688.184 -0.482472 663.165 -0.25046 654.485 1.35454ZM433.668 798.38C432.113 804.448 422.536 828.763 416.533 841.88C410.58 854.89 391.968 887.043 387.759 891.589L385.714 893.797L388.469 904.589C390.852 913.922 391.158 916.731 390.736 925.38C390.169 936.997 387.445 948.327 382.4 960.057C372.006 984.22 371.155 986.749 367.534 1004.25C365.466 1014.25 361.399 1029.43 358.304 1038.7C353.272 1053.77 333.325 1106.23 328.005 1118.38C326.801 1121.13 323.552 1129.45 320.785 1136.88C310.716 1163.9 300.228 1186.63 268.274 1250.69L235.695 1316L237.994 1326.14C241.349 1340.93 241.189 1355.59 237.555 1366.38C233.565 1378.22 229.337 1385.21 217.816 1398.98C205.655 1413.52 202.985 1417.16 202.985 1419.18C202.985 1420 202.355 1420.91 201.585 1421.2C200.017 1421.8 192.359 1432.25 188.994 1438.38C187.786 1440.58 187.403 1441.68 188.142 1440.82C188.88 1439.96 190.222 1438.98 191.122 1438.64C192.394 1438.17 192.654 1438.51 192.291 1440.2C192.033 1441.4 193.209 1439.95 194.904 1436.97C196.599 1433.99 197.985 1431.29 197.985 1430.95C197.985 1430.62 200.047 1428.35 202.568 1425.91C207.003 1421.61 217.435 1408.72 229.164 1393.04C235.41 1384.7 241.088 1374.06 243.727 1365.75C246.107 1358.27 245.839 1336.46 243.231 1325.38L241.348 1317.38L249.902 1299.88C254.608 1290.25 267.779 1263.89 279.172 1241.28C303.398 1193.23 309.224 1180.73 319.545 1154.66C323.745 1144.06 331.381 1124.8 336.514 1111.88C363.531 1043.85 367.458 1032.21 374.016 1000.72C376.277 989.87 378.302 983.711 383.878 970.723C397.113 939.899 399.775 920.271 393.381 900.654L391.84 895.927L398.312 885.619C410.106 866.83 418.414 851.53 424.485 837.414L430.485 823.465L431.219 829.422C431.623 832.699 432.621 844.38 433.437 855.38C436.065 890.82 440.961 937.848 442.988 947.138C445.044 956.557 448.096 962.957 455.549 973.478L459.869 979.576L457.342 987.478C452.835 1001.57 445.949 1038.54 443.858 1059.87C442.466 1074.06 443.29 1098.85 445.482 1108.74L447.113 1116.1L442.102 1128.74C430.907 1156.97 426.648 1169.41 416.632 1203.11C393.175 1282.04 384.669 1319.34 376.979 1376.97C374.748 1393.7 372.288 1412.1 371.513 1417.88C363.885 1474.72 365.04 1517.43 375.987 1583.38C381.192 1614.73 385.189 1629.53 406.931 1697.88C417.735 1731.85 427.636 1766.02 430.42 1778.94C432.747 1789.74 432.987 1793.61 434.072 1837.94C434.71 1864.03 434.984 1894.24 434.68 1905.07L434.127 1924.76L427.537 1939.91C395.076 2014.54 384.707 2107.65 397.525 2209.38C400.339 2231.71 409.106 2284.29 412.615 2299.88C421.211 2338.07 430.317 2366.15 442.879 2393.23C445.137 2398.1 446.985 2402.75 446.985 2403.57C446.985 2404.4 446.063 2406.36 444.937 2407.95C442.282 2411.68 440.606 2420.13 438.013 2442.88C435.579 2464.23 428.405 2510.43 427.067 2513.38C426.568 2514.48 423.143 2518.75 419.457 2522.88C415.771 2527 407.415 2536.75 400.888 2544.53C388.158 2559.71 377.168 2569.33 353.539 2585.97C331.202 2601.7 305.432 2629.3 296.705 2646.86C290.876 2658.58 291.838 2674.39 298.901 2682.96C304.397 2689.63 308.621 2691.83 339.985 2704.39C389.998 2724.41 429.582 2718.21 469.985 2684.03C479.851 2675.68 489.823 2669.55 498.581 2666.45C514.521 2660.8 529.917 2651.56 535.753 2644.15C537.387 2642.08 539.921 2638.01 541.385 2635.1C544.332 2629.26 552.072 2600.4 554.451 2586.38C556.056 2576.92 559.982 2529.52 559.984 2519.57C559.984 2516.38 560.94 2509.18 562.107 2503.57C563.834 2495.27 564.109 2491.51 563.587 2483.31C562.297 2463.06 558.683 2443.61 550.595 2413.38C547.197 2400.68 545.609 2383.87 546.414 2369.12C547.241 2353.97 548.758 2345.18 554.017 2325.08C557.849 2310.43 561.219 2300.05 575.352 2259.38C585.742 2229.48 594.187 2195.72 597.117 2172.38C598.744 2159.42 598.724 2123.45 597.082 2109.38C596.377 2103.33 593.6 2087.58 590.911 2074.38C582.645 2033.79 581.013 2022 579.979 1995.38C579.467 1982.18 578.75 1970.34 578.386 1969.08C577.942 1967.53 578.555 1965.23 580.247 1962.08C587.882 1947.86 601.565 1909.7 609.362 1880.88C615.387 1858.61 622.844 1815.81 625.462 1788.47C628.54 1756.32 627.145 1698.41 622.375 1660.38L620.744 1647.38L624.298 1640.34C631.971 1625.15 652.753 1530.7 659.443 1480.62C669.464 1405.6 672.87 1359.84 670.091 1337.57C669.673 1334.22 669.759 1331.52 670.294 1331.19C671.838 1330.23 688.401 1329.71 689.628 1330.57C690.46 1331.16 690.499 1332.88 689.774 1336.88C688.248 1345.29 688.605 1380.25 690.423 1400.38C697.024 1473.52 710.057 1549.59 728.029 1619.86C730.811 1630.74 732.983 1636.99 735.332 1640.86L738.674 1646.38L736.907 1664.77C727.829 1759.25 735.267 1839.03 760.147 1914.08C765.115 1929.06 767.55 1935.38 776.253 1955.9L780.716 1966.42L779.846 1990.9C778.804 2020.26 777.645 2029.34 769.96 2068.38C762.16 2108 761.578 2113.09 761.623 2141.38C761.664 2168.01 763.41 2183.43 769.018 2206.71C774.802 2230.73 778.791 2243.52 797.835 2299.09C807.09 2326.1 811.719 2348.21 812.655 2369.88C813.405 2387.22 811.772 2404.39 807.996 2418.88C799.235 2452.49 797.189 2463.94 796.293 2484.38C795.806 2495.49 796.018 2498.47 797.745 2504.88C798.856 2509 800.057 2517.55 800.412 2523.88C801.862 2549.68 804.175 2577.93 805.562 2586.77C807.76 2600.79 814.692 2627.53 817.95 2634.56C821.674 2642.59 827.359 2648.65 836.829 2654.68C844.019 2659.25 856.849 2665.21 865.163 2667.83C870.236 2669.43 879.039 2675.27 891.201 2685.12C909.157 2699.65 923.478 2707.45 941.485 2712.5C950.475 2715.02 953.051 2715.3 966.985 2715.3C980.52 2715.3 983.943 2714.95 993.985 2712.52C1008.79 2708.93 1014.1 2707.12 1033.22 2699.15C1056.67 2689.37 1063.99 2682.49 1065.9 2668.45C1067 2660.34 1065.63 2653.56 1061.06 2644.38C1051.42 2625.05 1032.65 2605.64 999.985 2581.21C978.854 2565.41 968.145 2555.58 955.483 2540.38C952.735 2537.08 946.169 2529.63 940.891 2523.83C931.839 2513.88 931.256 2512.97 930.6 2507.83C930.217 2504.83 928.596 2493.83 926.999 2483.38C925.401 2472.93 923.152 2456.05 922.001 2445.88C919.509 2423.86 917.767 2414.57 914.864 2407.82C912.401 2402.09 911.772 2404.54 921.295 2382.77C927.852 2367.79 935.93 2344.75 940.002 2329.43C944.597 2312.14 952.656 2273.61 954.443 2260.38C955.335 2253.78 957.606 2238.03 959.491 2225.38C961.376 2212.73 963.631 2195.85 964.502 2187.88C966.704 2167.72 967.536 2117.94 966.065 2094.38C962.3 2034.08 950.143 1979.96 930.766 1937.23L924.485 1923.38L924.602 1882.38C924.667 1859.83 925.27 1829.24 925.942 1814.41C927.023 1790.59 927.499 1786.1 930.027 1775.91C933.74 1760.95 949.337 1706.6 962.462 1662.88C968.159 1643.9 973.726 1624.78 974.834 1620.38C980.434 1598.14 987.462 1555.93 991.566 1519.88C993.537 1502.57 993.022 1462.52 990.59 1443.88C989.764 1437.55 987.268 1417.08 985.042 1398.38C978.564 1343.96 974.192 1319.52 962.955 1274.88C946.211 1208.37 934.726 1172.1 917.518 1131.38L911.179 1116.38L912.694 1108.38C914.576 1098.44 914.761 1068.35 913.044 1051.38C911.536 1036.48 907.127 1012.59 902.507 994.284C900.577 986.637 898.995 979.583 898.992 978.609C898.988 977.634 901.146 974.034 903.788 970.609C906.429 967.183 909.285 963.255 910.134 961.88C913.948 955.704 916.629 941.916 918.979 916.38C919.587 909.78 921.392 891.33 922.99 875.38C924.588 859.43 926.201 841.738 926.574 836.064C927.27 825.473 927.695 824.829 929.994 830.88C933.782 840.856 947.93 868.118 955.941 880.88C962.848 891.885 964.926 895.983 964.561 897.88C964.296 899.255 963.339 903.53 962.435 907.38C961.183 912.71 960.917 917.242 961.321 926.38C961.944 940.453 964.402 949.856 972.129 967.719C979.195 984.055 979.717 985.663 983.049 1001.38C989.687 1032.69 996.281 1051.66 1030.48 1137.88C1047.89 1181.76 1052.37 1191.62 1079.9 1246.38C1092.35 1271.13 1105.28 1297.19 1108.64 1304.3L1114.76 1317.22L1112.81 1325.3C1106.15 1352.9 1113.5 1381.41 1130.79 1395.03C1137.95 1400.68 1137.95 1400.64 1128.43 1385.91C1125.42 1381.25 1121.54 1373.82 1119.8 1369.41C1116.98 1362.24 1116.6 1359.99 1116.19 1348.4C1115.8 1337.24 1116.06 1334.03 1118.07 1325.52L1120.4 1315.63L1116.74 1308.51C1114.72 1304.59 1108.69 1292.15 1103.35 1280.88C1098.01 1269.6 1087.42 1248.38 1079.81 1233.72C1059.68 1194.88 1048.06 1169.23 1035.5 1135.88C1033.12 1129.55 1028.62 1118.14 1025.51 1110.51C1003.31 1056.15 992.035 1022.13 987.036 994.411C985.703 987.021 983.815 981.218 980.016 972.841C972.278 955.775 969.383 947.41 967.596 936.953C965.371 923.935 965.573 916.683 968.47 905.532C969.837 900.271 970.66 895.159 970.299 894.173C969.937 893.186 966.847 888.105 963.431 882.88C949.603 861.729 937.051 836.407 927.988 811.38C926.195 806.43 924.457 801.705 924.125 800.88C923.793 800.055 923.409 802.08 923.273 805.38C922.262 829.877 914.686 913.109 911.394 935.88C908.803 953.81 907.684 956.725 899.711 966.305C891.679 975.957 891.468 976.967 895.066 988.558C901.548 1009.44 906.46 1035.97 908.506 1061.14C910.064 1080.31 909.837 1089.69 907.382 1107.38L905.856 1118.38L910.468 1129.38C921.313 1155.25 929.006 1175.14 932.326 1185.88C951.483 1247.88 967.589 1312.98 973.888 1353.88C975.031 1361.3 977.102 1377.28 978.49 1389.38C979.877 1401.48 982.125 1420.15 983.484 1430.88C989.831 1480.94 989.601 1498.88 981.922 1552.88C975.788 1596.02 970.42 1618.98 953.91 1672.7C946.924 1695.44 928.306 1760.65 924.582 1775.44C921.337 1788.32 920.181 1810.13 919.312 1874.92L918.674 1922.47L925.248 1937.42C933.95 1957.22 936.285 1963.55 941.458 1981.38C956.221 2032.24 961.489 2072.03 961.449 2132.38C961.422 2172.82 960.605 2182.56 952.941 2233.88C941.82 2308.34 930.821 2350.75 912.548 2389.66C909.489 2396.17 906.985 2402.21 906.985 2403.08C906.985 2403.95 908.323 2407.52 909.957 2411.02C912.566 2416.6 913.365 2420.74 916.482 2444.83C920.088 2472.69 924.344 2502.23 926.043 2511.19C926.801 2515.18 928.075 2517.29 932.772 2522.31C935.959 2525.72 943.25 2534.1 948.975 2540.94C965.433 2560.61 977.497 2571.9 997.516 2586.37C1025.79 2606.81 1047.43 2629.05 1056.26 2646.75C1061.27 2656.81 1062.39 2665.91 1059.53 2673.39C1056.41 2681.58 1049.61 2686.44 1029.91 2694.56C999.298 2707.19 985.466 2710.33 963.494 2709.64C949.967 2709.22 947.497 2708.85 938.485 2705.91C922.209 2700.59 911.115 2694.11 891.854 2678.68C878.896 2668.3 873.645 2665.26 859.589 2659.99C840.804 2652.95 828.702 2644.17 823.433 2633.78C820.838 2628.66 812.892 2600.13 811.066 2589.38C809.471 2579.99 808.122 2564.54 806.483 2536.88C805.409 2518.76 804.401 2509.21 802.996 2503.88C801.909 2499.75 801.012 2493.13 801.002 2489.16C800.972 2476.51 804.929 2451.32 809.923 2432.38C816.441 2407.65 817.25 2402.42 817.743 2381.81C818.109 2366.51 817.841 2359.86 816.513 2351.31C813.855 2334.2 806.896 2308.5 797.984 2282.88C772.811 2210.52 766.671 2182.49 766.663 2139.88C766.659 2116.03 767.669 2107.58 774.946 2070.56C782.225 2033.54 783.889 2020.75 784.915 1993.99C785.413 1981 786.125 1969.61 786.498 1968.66C786.924 1967.58 784.584 1960.92 780.169 1950.66C767.48 1921.18 762.266 1906.04 755.544 1879.19C743.293 1830.27 738.494 1791.43 738.574 1741.88C738.625 1710.22 739.614 1690.03 742.566 1660.36L744.16 1644.34L740.592 1639.04C738.629 1636.12 736.59 1632.08 736.061 1630.06C716.427 1555 702.161 1472.95 695.523 1396.88C693.814 1377.29 693.499 1348.48 694.915 1341.18C695.426 1338.54 696.105 1333.79 696.423 1330.63L697.002 1324.88H663.441L664.663 1336.63C666.963 1358.75 666.4 1371.91 660.906 1424.38C653.985 1490.48 645.467 1539.58 630.376 1600.38C622.299 1632.92 621.957 1634.03 617.742 1641.25L614.9 1646.11L616.415 1656.75C620.192 1683.26 621.988 1711.41 621.975 1743.86C621.96 1778.84 619.449 1804.52 612.397 1841.8C604.44 1883.85 589.896 1930.26 575.805 1958.55C572.207 1965.78 571.859 1967.08 572.799 1969.78C573.384 1971.45 574.137 1980.6 574.472 1990.1C575.484 2018.76 578.582 2043.26 584.5 2069.38C588.792 2088.32 590.899 2101.49 592.636 2120.24C595.418 2150.28 592.672 2178.13 583.402 2213.88C578.977 2230.94 575.102 2243.12 559.652 2288.5C551.093 2313.64 543.753 2341.72 541.936 2356.28C540.457 2368.13 541.252 2396.21 543.341 2405.88C544.112 2409.45 546.377 2418.6 548.373 2426.2C553.059 2444.06 556.563 2463.22 557.981 2478.75C559.002 2489.92 558.915 2492.15 557.091 2501.75C555.98 2507.6 554.58 2520.7 553.981 2530.88C552.239 2560.46 550.091 2582.73 548.097 2591.88C544.458 2608.58 538.707 2628.47 535.917 2634.01C530.636 2644.48 516.088 2654.61 496.485 2661.47C486.954 2664.81 479.159 2669.64 464.876 2681.07C446.182 2696.03 433.08 2703.17 416.406 2707.47C407.231 2709.83 405.245 2709.99 389.985 2709.58C374.777 2709.17 372.483 2708.86 360.687 2705.52C348.484 2702.08 324.436 2692.81 313.263 2687.26C306.817 2684.06 300.489 2677.36 299.066 2672.23C297.202 2665.52 297.746 2656.92 300.385 2651.38C306.162 2639.25 322.865 2618.61 336.985 2606.16C341.66 2602.04 353.268 2593 362.781 2586.08C384.198 2570.49 392.91 2562.44 408.46 2543.91C415.167 2535.92 423.213 2526.45 426.34 2522.88C429.467 2519.3 432.446 2514.8 432.959 2512.88C434.012 2508.93 440.67 2463.98 444.391 2435.7C446.524 2419.48 447.255 2416.24 449.915 2411.2C451.601 2408 452.982 2404.5 452.983 2403.43C452.984 2402.36 449.546 2394.03 445.344 2384.93C441.141 2375.83 436.014 2363.65 433.95 2357.88C420.986 2321.6 405.754 2242.57 399.547 2179.38C395.421 2137.38 396.876 2088.45 403.531 2045.38C409.698 2005.48 421.531 1964.61 435.094 1936.38L439.418 1927.38L439.773 1904.88C439.969 1892.5 439.65 1861 439.065 1834.88C438.07 1790.45 437.847 1786.73 435.628 1777.38C431.009 1757.91 422.647 1729.6 405.504 1675.38C386.956 1616.72 384.664 1607.19 378.067 1561.38C370.013 1505.45 370.117 1465.55 378.467 1406.88C379.289 1401.1 381.105 1387.38 382.502 1376.38C388.543 1328.82 398.827 1282.46 416.442 1223.38C421.033 1207.98 425.718 1191.94 426.853 1187.74C429.572 1177.68 440.722 1146.75 447.589 1130.21L453.057 1117.05L451.074 1107.21C449.983 1101.8 448.789 1093.55 448.422 1088.88C446.769 1067.87 454.251 1015.55 462.61 989.646C466.548 977.446 466.79 978.734 458.471 967.696C452.334 959.554 449.904 953.936 447.516 942.375C444.932 929.868 439.498 872.813 436.944 831.38C434.993 799.737 434.526 795.03 433.668 798.38ZM23.4731 1324.81C15.1241 1327.78 10.5351 1330.53 6.57015 1334.92C1.61615 1340.4 -0.0178532 1344.55 0.000146826 1351.6C0.0181468 1358.1 0.543147 1359.32 3.66715 1360.11C5.78715 1360.64 5.83415 1360.46 5.29015 1353.98C4.82615 1348.44 5.08814 1346.6 6.82314 1343.2C9.37415 1338.2 15.7041 1332.62 22.1251 1329.72C24.7541 1328.53 26.7451 1327.29 26.5501 1326.97C26.1451 1326.3 28.6342 1323.78 29.5492 1323.94C29.8802 1324 30.4141 1323.78 30.7351 1323.46C31.7991 1322.4 28.5531 1323 23.4731 1324.81ZM1335.99 1328.48C1337.36 1330.05 1339.39 1332.01 1340.49 1332.83C1345.1 1336.28 1349.87 1342.01 1351 1345.44C1351.67 1347.46 1352.01 1351.31 1351.75 1354C1351.4 1357.67 1351.57 1358.64 1352.46 1357.9C1353.23 1357.26 1354.01 1357.3 1354.73 1358.02C1355.53 1358.82 1356.01 1357.88 1356.51 1354.6C1358.32 1342.5 1349.57 1330.47 1335.99 1326.38L1333.49 1325.63L1335.99 1328.48ZM1347.88 1363.59C1346.58 1365.67 1345.12 1368 1344.63 1368.77C1344.07 1369.62 1344.1 1369.93 1344.69 1369.56C1346.27 1368.58 1351.32 1360.89 1350.76 1360.32C1350.47 1360.03 1349.17 1361.5 1347.88 1363.59ZM60.1841 1377.56C58.4781 1378.24 53.9851 1385.39 53.9851 1387.43C53.9851 1389.23 56.8321 1388.72 60.8191 1386.2C62.7421 1384.98 65.9851 1379.47 65.9851 1377.41C65.9851 1376.75 61.9441 1376.85 60.1841 1377.56ZM1290.65 1378.55C1289.29 1379.9 1290.1 1381.92 1294.66 1388.57C1304.65 1403.13 1323.65 1435.69 1325.49 1441.38C1329.54 1453.94 1327.37 1465.44 1319.5 1473.05L1315.71 1476.72L1315.6 1485.55C1315.5 1493.47 1315.17 1494.94 1312.39 1499.83C1310.3 1503.53 1307.47 1506.57 1303.6 1509.31C1298.36 1513.02 1297.27 1513.38 1290.3 1513.73C1286.12 1513.94 1280.95 1513.59 1278.81 1512.95C1275.46 1511.94 1274.02 1512.08 1268.43 1513.97C1263.2 1515.74 1260.59 1516.05 1254.99 1515.58C1243.03 1514.58 1235.78 1510.05 1227.44 1498.36C1223.02 1492.17 1223.01 1492.17 1217 1491.54C1202.16 1489.99 1195.72 1483.42 1175.29 1449.03C1171.25 1442.24 1165.94 1434.14 1163.49 1431.03C1157.27 1423.16 1146.04 1411.17 1146.02 1412.38C1145.99 1413.46 1149.65 1419.48 1157.49 1431.23C1160.24 1435.35 1166.09 1444.89 1170.49 1452.43C1174.89 1459.97 1179.65 1467.32 1181.08 1468.77C1182.5 1470.22 1184.47 1473.09 1185.44 1475.15C1186.42 1477.21 1189.82 1481.6 1193 1484.9C1199.53 1491.67 1207.59 1495.94 1215.23 1496.68C1219.74 1497.11 1220.37 1497.53 1224.46 1502.85C1233.88 1515.09 1242.44 1519.99 1255.58 1520.69C1261.25 1520.99 1265.37 1520.62 1269.36 1519.46C1273.97 1518.12 1276.14 1518 1280.77 1518.84C1291.81 1520.83 1303.68 1516.95 1312.01 1508.62C1317.76 1502.87 1320.37 1496.72 1320.83 1487.88C1321.17 1481.24 1321.6 1479.85 1324.61 1475.73C1330.73 1467.35 1332.43 1462.37 1332.38 1452.88C1332.31 1441.38 1329.16 1433.84 1313.92 1408.7C1307.36 1397.87 1301.99 1388.11 1301.99 1387.02C1301.99 1382.65 1293.15 1376.05 1290.65 1378.55ZM50.1181 1395.97C48.0261 1398.21 46.6791 1401.88 47.9461 1401.88C48.3711 1401.88 49.9101 1400.08 51.3661 1397.88C54.1691 1393.64 53.3911 1392.45 50.1181 1395.97ZM38.6051 1415.3C25.9991 1435.38 22.2331 1445.51 23.4321 1456.12C24.3051 1463.83 26.9791 1469.83 31.9361 1475.21C35.8611 1479.47 35.9851 1479.82 35.9851 1486.58C35.9851 1499.09 43.2331 1509.67 55.9851 1515.75C60.9671 1518.13 62.6161 1518.38 73.4851 1518.4C80.9221 1518.41 86.9531 1518.93 89.3471 1519.76C95.4141 1521.88 110.332 1520.85 115.985 1517.92C123.101 1514.24 126.66 1511.11 131.863 1503.95C136.43 1497.67 137.079 1497.18 142.941 1495.55C151.387 1493.2 157.773 1489.83 162.519 1485.2C166.869 1480.95 180.878 1461.58 185.892 1452.88C187.634 1449.85 189.773 1446.37 190.644 1445.13C191.516 1443.89 191.837 1442.88 191.357 1442.89C190.545 1442.89 189.767 1444.06 184.891 1452.6C181.969 1457.72 177.725 1462.08 176.924 1460.78C176.22 1459.64 167.985 1469.57 167.985 1471.56C167.985 1473.09 154.89 1485.37 151.247 1487.25C149.465 1488.17 144.661 1489.71 140.571 1490.67C133.169 1492.42 133.115 1492.46 129.065 1498.52C126.828 1501.87 123.012 1506.44 120.586 1508.68C112.826 1515.83 99.7661 1517.88 87.9521 1513.79C82.5861 1511.93 81.3431 1511.83 76.8411 1512.91C57.4271 1517.57 39.7361 1502.97 41.2321 1483.53L41.7051 1477.38L36.4161 1471.78C27.8951 1462.75 26.3182 1454.13 30.6751 1440.38C32.9221 1433.29 35.5771 1428.27 40.7151 1421.39C44.4901 1416.34 49.9851 1406.95 49.9851 1405.54C49.9851 1405.31 48.8611 1405.13 47.4871 1405.13C45.4051 1405.13 43.9251 1406.82 38.6051 1415.3Z" fill="#544D47"/>
</svg>
